<?xml version="1.0" encoding="UTF-8"?> <svg xmlns="http://www.w3.org/2000/svg" width="505.491" height="191.891" viewBox="0 0 505.491 191.891"><defs><style>.a{fill:#060000;}</style></defs><g transform="translate(-2112.659 -651.59)"><path class="a" d="M2131.389,1017.255q9.249,0,13.991-5.2t4.741-14.9v-10.62h-11.878v11.42q0,4.343-1.771,6.054a7.418,7.418,0,0,1-9.479,0q-1.771-1.714-1.771-6.054V954.783q0-4.338,1.771-6.11a7.232,7.232,0,0,1,9.479,0q1.769,1.773,1.771,6.11v8.567h11.878v-7.766q0-9.706-4.741-14.906t-13.991-5.2q-9.252,0-13.99,5.2t-4.74,14.906v41.571q0,9.709,4.74,14.9T2131.389,1017.255Z" transform="translate(0 -263.372)"></path><path class="a" d="M2185.458,1017.021h11.533l2.172-14.505h15.417l2.171,14.505h12.677l-12.792-79.946h-18.387Zm21.356-65.783,6.053,40.428h-12.105Z" transform="translate(-30.999 -264.05)"></path><path class="a" d="M2268.8,992.245v4.909q0,9.709,4.739,14.9t13.991,5.2q9.25,0,13.99-5.2t4.74-14.9a24.888,24.888,0,0,0-1.828-9.934,31.183,31.183,0,0,0-4.568-7.539,55.807,55.807,0,0,0-5.882-6.11q-3.143-2.8-5.883-5.6a30.124,30.124,0,0,1-4.568-5.938,14.152,14.152,0,0,1-1.827-7.254q0-4.338,1.656-6.11a6.93,6.93,0,0,1,9.251,0q1.654,1.773,1.656,6.11V958.1h11.876v-2.512q0-9.706-4.625-14.906t-13.876-5.2q-9.251,0-13.878,5.2t-4.625,14.906a24.835,24.835,0,0,0,1.829,9.935,31.007,31.007,0,0,0,4.567,7.539,55.731,55.731,0,0,0,5.883,6.109q3.14,2.8,5.881,5.6a30.215,30.215,0,0,1,4.568,5.939,14.168,14.168,0,0,1,1.827,7.251q0,4.343-1.771,6.054a7.418,7.418,0,0,1-9.479,0q-1.771-1.714-1.77-6.054v-5.709Z" transform="translate(-66.487 -263.372)"></path><path class="a" d="M2343.191,992.245v4.909q0,9.709,4.739,14.9t13.991,5.2q9.251,0,13.99-5.2t4.741-14.9a24.892,24.892,0,0,0-1.827-9.934,31.194,31.194,0,0,0-4.569-7.539,55.805,55.805,0,0,0-5.882-6.11q-3.143-2.8-5.882-5.6a30.112,30.112,0,0,1-4.569-5.938,14.157,14.157,0,0,1-1.826-7.254q0-4.338,1.656-6.11a6.928,6.928,0,0,1,9.25,0q1.655,1.773,1.656,6.11V958.1h11.877v-2.512q0-9.706-4.626-14.906t-13.876-5.2q-9.25,0-13.876,5.2t-4.626,14.906a24.878,24.878,0,0,0,1.828,9.935,31,31,0,0,0,4.57,7.539,55.63,55.63,0,0,0,5.882,6.109q3.14,2.8,5.882,5.6a30.339,30.339,0,0,1,4.568,5.939,14.17,14.17,0,0,1,1.826,7.251q0,4.343-1.77,6.054a7.418,7.418,0,0,1-9.479,0q-1.772-1.714-1.771-6.054v-5.709Z" transform="translate(-98.163 -263.372)"></path><rect class="a" width="17.245" height="11.422" transform="translate(2331.94 706.716)"></rect><path class="a" d="M2455.223,948.495v-11.42h-34.261v79.946h34.261V1005.6h-21.7V982.188h17.246V970.766h-17.246V948.495Z" transform="translate(-131.279 -264.05)"></path><path class="a" d="M2583.533,963.35v-7.766q0-9.706-4.74-14.906t-13.989-5.2q-9.252,0-13.992,5.2t-4.74,14.906v41.571q0,9.709,4.74,14.9t13.992,5.2q9.249,0,13.989-5.2t4.74-14.9v-10.62h-11.878v11.42q0,4.343-1.771,6.054a7.414,7.414,0,0,1-9.477,0q-1.771-1.714-1.77-6.054V954.783q0-4.338,1.77-6.11a7.228,7.228,0,0,1,9.477,0q1.77,1.773,1.771,6.11v8.567Z" transform="translate(-184.553 -263.372)"></path><path class="a" d="M2647.824,986.756q1.939,2.284,1.94,7.88l.779,22.385h12.565l-.781-22.042a28.593,28.593,0,0,0-1.771-10.678,11.251,11.251,0,0,0-6.565-6.339q8.222-3.881,8.222-16.217v-6.283q0-9.251-4.4-13.818t-14.219-4.568h-18.959l.779,79.946h12.562l-.778-32.549h4.341Q2645.881,984.472,2647.824,986.756ZM2637.2,948.495h6.053a5.826,5.826,0,0,1,4.854,1.941q1.544,1.945,1.542,6.283v7.88q0,4.8-2,6.624a7.907,7.907,0,0,1-5.539,1.828H2637.2Z" transform="translate(-218.007 -264.05)"></path><path class="a" d="M2707.72,940.678q-4.913,5.2-4.911,14.906v41.571q0,9.709,4.911,14.9t14.162,5.2q9.253,0,14.161-5.2t4.912-14.9V955.584q0-9.706-4.912-14.906t-14.161-5.2Q2712.633,935.482,2707.72,940.678Zm20.671,14.105v43.171q0,4.343-1.77,6.111a7.227,7.227,0,0,1-9.477,0q-1.773-1.769-1.77-6.111V954.783q0-4.338,1.77-6.11a7.228,7.228,0,0,1,9.477,0Q2728.392,950.446,2728.391,954.783Z" transform="translate(-251.293 -263.372)"></path><path class="a" d="M2782.369,997.949q0,9.706,4.74,14.9t13.991,5.2q9.252,0,13.991-5.2t4.737-14.9V937.075h-11.875v61.673q0,4.34-1.77,6.051a7.412,7.412,0,0,1-9.481,0q-1.771-1.713-1.769-6.051V937.075h-12.565Z" transform="translate(-285.171 -264.05)"></path><path class="a" d="M2803.5,908.376l5.142,6.281h10.734l-10.163-14.912h-11.308l-10.166,14.912h10.737Z" transform="translate(-287.457 -248.154)"></path><path class="a" d="M2881.862,1017.021V948.495H2895v-11.42h-38.833v11.42H2869.3v68.526Z" transform="translate(-316.593 -264.05)"></path><path class="a" d="M2967.607,948.495v-11.42h-34.264v79.946h34.264V1005.6h-21.7V982.188h17.247V970.766h-17.247V948.495Z" transform="translate(-349.457 -264.05)"></path><path class="a" d="M2112.659,1185.345h505.49v-65.526h-505.49Zm473.73-36.285,3.29-8.135,3.288,8.135,8.415.748-6.39,5.8,1.919,8.627-7.233-4.578-7.235,4.578,1.921-8.627-6.392-5.8Zm-59.049-17.223h8.786v25.452q0,4.806,1.933,7.051t6.4,2.247q4.321,0,6.271-2.26t1.948-7.094v-25.4h8.786v26.9a15.5,15.5,0,0,1-2.062,8.076,13.407,13.407,0,0,1-5.957,5.318,21.294,21.294,0,0,1-9.215,1.849q-8.02,0-12.454-4.11t-4.437-11.246Zm-42.689-.17h10.779l14.73,41.746h-9.5l-3.015-9.9h-15.159l-3.013,9.9h-9.5Zm-54.289.17h23.945v7.224h-15.13v9.127h14.077v7.224h-14.077v10.72h15.13v7.28h-23.945Zm-50.024,0h31.4v7.337h-11.291v34.238h-8.816v-34.238h-11.289Zm-46.61,0h12.113q8.475,0,12.542,3.086t4.067,9.369a11.032,11.032,0,0,1-2.019,6.527,13.356,13.356,0,0,1-5.715,4.479q9.385,14.02,12.227,18.115h-9.781l-9.924-15.953h-4.691v15.953h-8.816Zm-56.535,0h8.788v25.452q0,4.806,1.933,7.051t6.4,2.247q4.321,0,6.27-2.26t1.948-7.094v-25.4h8.787v26.9a15.5,15.5,0,0,1-2.062,8.076,13.407,13.407,0,0,1-5.958,5.318,21.292,21.292,0,0,1-9.214,1.849q-8.019,0-12.456-4.11t-4.435-11.246Zm-55.015,4.821q5.134-5.477,14.718-5.475t14.659,5.517q5.076,5.516,5.075,15.868,0,10.323-5.117,15.867t-14.674,5.546q-9.555,0-14.675-5.546t-5.119-15.924Q2217.044,1142.132,2222.177,1136.658Zm-52.114,4.661a17.058,17.058,0,0,1,6.784-7.478,20.057,20.057,0,0,1,10.365-2.6,27.987,27.987,0,0,1,12.173,2.93l-2.844,7.165a47.58,47.58,0,0,0-4.691-1.934,14.049,14.049,0,0,0-4.637-.823,8.981,8.981,0,0,0-7.706,3.738q-2.73,3.74-2.73,10.423,0,13.907,10.436,13.9a32.984,32.984,0,0,0,10.608-2.19v7.395a29.477,29.477,0,0,1-11.433,2.133q-9.07,0-13.878-5.5t-4.806-15.8A25.814,25.814,0,0,1,2170.063,1141.32Zm-32.762,7.74,3.288-8.135,3.289,8.135,8.415.748-6.391,5.8,1.92,8.627-7.233-4.578-7.234,4.578,1.92-8.627-6.391-5.8Z" transform="translate(0 -341.864)"></path><path class="a" d="M2321.1,1180.455q10.549,0,10.55-14.019,0-14.048-10.494-14.048-5.262,0-7.933,3.539t-2.674,10.509q0,6.969,2.645,10.493T2321.1,1180.455Z" transform="translate(-84.265 -355.733)"></path><path class="a" d="M2522.038,1163.169a4.976,4.976,0,0,0,1.99-4.38,4.553,4.553,0,0,0-2.033-4.209q-2.035-1.25-6.3-1.25h-2.674v11.232h2.845Q2520.045,1164.562,2522.038,1163.169Z" transform="translate(-170.48 -356.134)"></path><path class="a" d="M2766.743,1154.481q-.527-1.761-.753-2.785-.94,3.639-5.376,18h10.836Q2767.269,1156.247,2766.743,1154.481Z" transform="translate(-275.907 -355.438)"></path></g></svg> 