<?xml version="1.0" encoding="UTF-8"?> <svg xmlns="http://www.w3.org/2000/svg" width="329.055" height="115.67" viewBox="0 0 329.055 115.67"><defs><style>.a{fill:#f7a600;}.b{fill:#090400;}</style></defs><g transform="translate(-307.362 -4084.073)"><g transform="translate(407.898 4100.751)"><g transform="translate(0 9.276)"><path class="a" d="M711.607,4207.142v4.8q0,4.39-2.143,6.738t-6.325,2.349q-4.182,0-6.325-2.349t-2.143-6.738V4193.15q0-4.388,2.143-6.739t6.325-2.349q4.182,0,6.325,2.349t2.143,6.739v3.511h-5.37v-3.873a3.842,3.842,0,0,0-.8-2.762,3.269,3.269,0,0,0-4.285,0,3.837,3.837,0,0,0-.8,2.762V4212.3a3.736,3.736,0,0,0,.8,2.736,3.351,3.351,0,0,0,4.285,0,3.741,3.741,0,0,0,.8-2.736v-5.163Z" transform="translate(-694.672 -4184.062)"></path></g><g transform="translate(18.897 9.69)"><path class="a" d="M787.349,4221.8h-5.731l-.981-6.558h-6.97l-.981,6.558h-5.214l5.783-36.141h8.312Zm-12.959-11.462h5.473l-2.737-18.277Z" transform="translate(-767.472 -4185.656)"></path></g><g transform="translate(40.531 9.276)"><path class="a" d="M850.969,4193.15q0-4.388,2.091-6.739t6.273-2.349q4.182,0,6.273,2.349t2.091,6.739v1.136h-5.369v-1.5a4.024,4.024,0,0,0-.749-2.762,3.132,3.132,0,0,0-4.182,0,4.019,4.019,0,0,0-.748,2.762,6.4,6.4,0,0,0,.826,3.279,13.6,13.6,0,0,0,2.065,2.685q1.239,1.266,2.659,2.53a25.3,25.3,0,0,1,2.659,2.762,14.09,14.09,0,0,1,2.065,3.408,11.261,11.261,0,0,1,.826,4.492q0,4.39-2.143,6.738t-6.325,2.349q-4.182,0-6.325-2.349t-2.142-6.738v-2.219h5.369v2.581a3.736,3.736,0,0,0,.8,2.736,3.351,3.351,0,0,0,4.285,0,3.739,3.739,0,0,0,.8-2.736,6.4,6.4,0,0,0-.826-3.279,13.7,13.7,0,0,0-2.065-2.685q-1.24-1.264-2.659-2.53a25.155,25.155,0,0,1-2.659-2.762,14,14,0,0,1-2.065-3.408A11.237,11.237,0,0,1,850.969,4193.15Z" transform="translate(-850.815 -4184.062)"></path></g><g transform="translate(59.841 9.276)"><path class="a" d="M925.359,4193.15q0-4.388,2.091-6.739t6.273-2.349q4.182,0,6.273,2.349t2.091,6.739v1.136h-5.37v-1.5a4.025,4.025,0,0,0-.749-2.762,3.132,3.132,0,0,0-4.182,0,4.019,4.019,0,0,0-.748,2.762,6.4,6.4,0,0,0,.826,3.279,13.6,13.6,0,0,0,2.065,2.685q1.239,1.266,2.659,2.53a25.323,25.323,0,0,1,2.659,2.762,14.109,14.109,0,0,1,2.065,3.408,11.261,11.261,0,0,1,.826,4.492q0,4.39-2.143,6.738t-6.325,2.349q-4.182,0-6.325-2.349t-2.142-6.738v-2.219h5.369v2.581a3.737,3.737,0,0,0,.8,2.736,3.351,3.351,0,0,0,4.285,0,3.738,3.738,0,0,0,.8-2.736,6.4,6.4,0,0,0-.826-3.279,13.673,13.673,0,0,0-2.065-2.685q-1.239-1.264-2.659-2.53a25.155,25.155,0,0,1-2.659-2.762,14.009,14.009,0,0,1-2.065-3.408A11.242,11.242,0,0,1,925.359,4193.15Z" transform="translate(-925.205 -4184.062)"></path></g><g transform="translate(80.028 9.69)"><path class="a" d="M1008.655,4200.887h7.8v5.163h-7.8v10.584h9.81v5.163h-15.489v-36.141h15.489v5.162h-9.81Zm13.424,0h7.8v5.163h-7.8Z" transform="translate(-1002.976 -4185.656)"></path></g><g transform="translate(112.503 9.276)"><path class="a" d="M1145.021,4207.142v4.8q0,4.39-2.143,6.738t-6.324,2.349q-4.182,0-6.325-2.349t-2.143-6.738V4193.15q0-4.388,2.143-6.739t6.325-2.349q4.182,0,6.324,2.349t2.143,6.739v3.511h-5.37v-3.873a3.841,3.841,0,0,0-.8-2.762,3.268,3.268,0,0,0-4.285,0,3.838,3.838,0,0,0-.8,2.762V4212.3a3.737,3.737,0,0,0,.8,2.736,3.351,3.351,0,0,0,4.285,0,3.74,3.74,0,0,0,.8-2.736v-5.163Z" transform="translate(-1128.086 -4184.062)"></path></g><g transform="translate(132.898 9.69)"><path class="a" d="M1218.365,4221.8l-.352-10.12a5.568,5.568,0,0,0-.878-3.562,3.537,3.537,0,0,0-2.84-1.032h-1.963l.352,14.714h-5.679l-.352-36.141h8.571q4.44,0,6.428,2.065t1.988,6.246v2.841q0,5.575-3.717,7.332a5.086,5.086,0,0,1,2.969,2.865,12.93,12.93,0,0,1,.8,4.828l.352,9.964Zm-6.031-30.979v11.1h2.22a3.575,3.575,0,0,0,2.5-.826,3.966,3.966,0,0,0,.9-2.995v-3.562a4.59,4.59,0,0,0-.7-2.84,2.633,2.633,0,0,0-2.194-.878Z" transform="translate(-1206.654 -4185.656)"></path></g><g transform="translate(153.188 9.276)"><path class="a" d="M1284.823,4193.15q0-4.388,2.22-6.739a9.9,9.9,0,0,1,12.8,0q2.22,2.35,2.22,6.739v18.793q0,4.39-2.22,6.738a9.9,9.9,0,0,1-12.8,0q-2.221-2.348-2.22-6.738Zm5.68,19.155a3.834,3.834,0,0,0,.8,2.762,3.268,3.268,0,0,0,4.285,0,3.839,3.839,0,0,0,.8-2.762v-19.517a3.842,3.842,0,0,0-.8-2.762,3.268,3.268,0,0,0-4.285,0,3.838,3.838,0,0,0-.8,2.762Z" transform="translate(-1284.823 -4184.062)"></path></g><g transform="translate(173.84 0)"><path class="a" d="M1370.063,4158.016v27.88a3.738,3.738,0,0,0,.8,2.736,3.352,3.352,0,0,0,4.286,0,3.74,3.74,0,0,0,.8-2.736v-27.88h5.369v27.52q0,4.388-2.142,6.737t-6.325,2.349q-4.182,0-6.325-2.349t-2.143-6.737v-27.52Zm-4.286-2.949,4.6-6.742h5.111l4.595,6.742h-4.852l-2.324-2.84-2.272,2.84Z" transform="translate(-1364.383 -4148.325)"></path></g><g transform="translate(192.996 9.69)"><path class="a" d="M1438.178,4185.656h17.555v5.162H1449.8V4221.8h-5.68v-30.979h-5.937Z" transform="translate(-1438.178 -4185.656)"></path></g><g transform="translate(213.029 9.69)"><path class="a" d="M1521.036,4200.887h7.8v5.163h-7.8v10.584h9.81v5.163h-15.489v-36.141h15.489v5.162h-9.81Z" transform="translate(-1515.357 -4185.656)"></path></g></g><rect class="a" width="228.519" height="29.623" transform="translate(407.898 4157.877)"></rect><path class="a" d="M397.82,4136.355a2.57,2.57,0,0,0-2.516-3.1h-3.481l.758-8.152a5.053,5.053,0,0,0-5.031-5.521H378.06l1.167-20.883a5.054,5.054,0,0,0-5.045-5.335H363.3l.08-4.143a5.052,5.052,0,0,0-5.052-5.15H346.91a5.052,5.052,0,0,0-5.052,5.149l.171,8.95H331.553a5.052,5.052,0,0,0-5.045,5.328l.481,8.822h-9.973a5.052,5.052,0,0,0-5.031,5.519l1.429,15.417h-3.481a2.57,2.57,0,0,0-2.516,3.1l12.26,58.4a6.3,6.3,0,0,0,6.14,4.986h53.6a6.3,6.3,0,0,0,6.14-4.986Z"></path><path class="b" d="M577.258,4240.681h9.682l-.794,8.533h-9.364Z" transform="translate(-199.486 -115.956)"></path><path class="b" d="M519.747,4139.392l10.89-.076-1.318,23.6-.692,12.4a5.857,5.857,0,0,0-2.42,3.906,17.2,17.2,0,0,1-7.42,11.75Z" transform="translate(-156.544 -40.903)"></path><path class="b" d="M471.048,4103.533l-.131,6.761c0,.011,0,.022,0,.033l-1.053,56.535a16.842,16.842,0,0,1-8.876,0l-.963-51.735c0-.008,0-.017,0-.025l-.309-11.479Z" transform="translate(-112.81 -14.409)"></path><path class="b" d="M411.395,4158.195l.87,46.752a17.2,17.2,0,0,1-7.421-11.749,5.852,5.852,0,0,0-2.2-3.748l-1.107-19.819h0l-.623-11.435Z" transform="translate(-69.27 -54.882)"></path><path class="b" d="M355.086,4212.707l.882,15.794h-9.577l-1.464-15.794Z" transform="translate(-27.814 -95.243)"></path><path class="b" d="M396.891,4348.662a1.137,1.137,0,0,1-1.108.9h-53.6a1.137,1.137,0,0,1-1.108-.9l-11.61-55.3h16.556a.887.887,0,0,1,.265.045c.016.006.033.009.049.015a.777.777,0,0,1,.517.593,22.366,22.366,0,0,0,44.265,0,.825.825,0,0,1,.832-.653H408.5Z" transform="translate(-16.363 -154.96)"></path><g transform="translate(432.782 4163.014)"><g transform="translate(0 0.026)"><path class="b" d="M799.356,4391.606a4.06,4.06,0,0,0-3.484,1.69,7.867,7.867,0,0,0-1.234,4.712q0,6.288,4.718,6.287a14.9,14.9,0,0,0,4.8-.99v3.343a13.321,13.321,0,0,1-5.168.964,7.883,7.883,0,0,1-6.274-2.488q-2.173-2.488-2.172-7.141a11.666,11.666,0,0,1,1.067-5.137,7.715,7.715,0,0,1,3.066-3.38,9.071,9.071,0,0,1,4.686-1.177,12.66,12.66,0,0,1,5.5,1.324l-1.286,3.24a21.5,21.5,0,0,0-2.121-.875A6.354,6.354,0,0,0,799.356,4391.606Z" transform="translate(-790.537 -4388.289)"></path></g><g transform="translate(22.306 0)"><path class="b" d="M894.365,4397.858q0,4.667-2.314,7.173a10.029,10.029,0,0,1-13.268,0q-2.314-2.507-2.314-7.2t2.32-7.167a8.678,8.678,0,0,1,6.653-2.475,8.558,8.558,0,0,1,6.627,2.494Q894.365,4393.178,894.365,4397.858Zm-13.717,0a7.849,7.849,0,0,0,1.2,4.743,4.182,4.182,0,0,0,3.574,1.595q4.77,0,4.77-6.338t-4.744-6.351a4.211,4.211,0,0,0-3.587,1.6A7.819,7.819,0,0,0,880.648,4397.858Z" transform="translate(-876.47 -4388.19)"></path></g><g transform="translate(49.497 0.296)"><path class="b" d="M996.649,4389.33v12.162a7.007,7.007,0,0,1-.932,3.65,6.065,6.065,0,0,1-2.693,2.4,9.625,9.625,0,0,1-4.165.835,7.975,7.975,0,0,1-5.631-1.858,6.588,6.588,0,0,1-2.005-5.084v-12.11h3.972v11.506a4.815,4.815,0,0,0,.874,3.188,3.631,3.631,0,0,0,2.892,1.016,3.555,3.555,0,0,0,2.835-1.022,4.846,4.846,0,0,0,.88-3.207v-11.48Z" transform="translate(-981.222 -4389.33)"></path></g><g transform="translate(75.055 0.296)"><path class="b" d="M1083.668,4400.914v7.211h-3.985V4389.33h5.476q3.831,0,5.67,1.4a5.56,5.56,0,0,1,.926,7.186,6.038,6.038,0,0,1-2.584,2.025q4.242,6.338,5.528,8.189h-4.422l-4.487-7.211Zm0-3.24h1.286a4.919,4.919,0,0,0,2.79-.63,2.25,2.25,0,0,0,.9-1.98,2.059,2.059,0,0,0-.919-1.9,5.587,5.587,0,0,0-2.847-.564h-1.209Z" transform="translate(-1079.683 -4389.33)"></path></g><g transform="translate(96.126 0.296)"><path class="b" d="M1169.947,4408.125h-3.986v-15.478h-5.1v-3.317h14.193v3.317h-5.1Z" transform="translate(-1160.858 -4389.33)"></path></g><g transform="translate(118.741 0.296)"><path class="b" d="M1258.8,4408.125H1247.98V4389.33H1258.8v3.266h-6.84v4.126h6.364v3.265h-6.364v4.847h6.84Z" transform="translate(-1247.98 -4389.33)"></path></g><g transform="translate(136.65 0.219)"><path class="b" d="M1330.846,4407.9l-1.363-4.474h-6.853l-1.362,4.474h-4.294l6.633-18.873h4.873l6.659,18.873Zm-2.314-7.816q-1.89-6.081-2.128-6.879t-.341-1.259q-.424,1.644-2.43,8.138Z" transform="translate(-1316.974 -4389.032)"></path></g><g transform="translate(162.582 0.296)"><path class="b" d="M1432.3,4389.33v12.162a7.006,7.006,0,0,1-.932,3.65,6.061,6.061,0,0,1-2.693,2.4,9.629,9.629,0,0,1-4.166.835,7.972,7.972,0,0,1-5.631-1.858,6.588,6.588,0,0,1-2.006-5.084v-12.11h3.972v11.506a4.821,4.821,0,0,0,.874,3.188,3.634,3.634,0,0,0,2.893,1.016,3.557,3.557,0,0,0,2.835-1.022,4.848,4.848,0,0,0,.881-3.207v-11.48Z" transform="translate(-1416.876 -4389.33)"></path></g></g><g transform="translate(415.233 4167.418)"><path class="b" d="M728.221,4413.627l3.27,2.069-.868-3.9,2.889-2.625-3.8-.337-1.487-3.679-1.487,3.679-3.8.337,2.889,2.625-.868,3.9Z" transform="translate(-722.93 -4405.156)"></path></g><g transform="translate(618.254 4167.418)"><path class="b" d="M1510.351,4413.627l3.27,2.069-.868-3.9,2.889-2.625-3.8-.337-1.487-3.679-1.487,3.679-3.8.337,2.889,2.625-.868,3.9Z" transform="translate(-1505.06 -4405.156)"></path></g></g></svg> 