<?xml version="1.0" encoding="UTF-8"?> <svg xmlns="http://www.w3.org/2000/svg" width="44.056" height="44.057" viewBox="0 0 44.056 44.057"><defs><style>.a{fill:#1a1818;}</style></defs><path class="a" d="M-603.955,498.374a4.5,4.5,0,0,0-4.5,4.5c0,.046,0,.091,0,.135a4.5,4.5,0,0,0,4.494,4.362A4.5,4.5,0,0,0-599.464,503c0-.044,0-.089,0-.135A4.5,4.5,0,0,0-603.955,498.374Z" transform="translate(625.672 -480.978)"></path><path class="a" d="M-611.11,480.382h-8.664c-4.24,0-6.3,2.024-6.3,6.19v8.876c0,4.338,1.886,6.19,6.3,6.19h8.664c4.242,0,6.3-2.026,6.3-6.19v-8.876C-604.808,482.406-606.868,480.382-611.11,480.382Zm-12.378,3.9a1.291,1.291,0,0,1,1.287-1.289,1.291,1.291,0,0,1,1.289,1.289,1.289,1.289,0,0,1-1.289,1.287A1.289,1.289,0,0,1-623.487,484.279Zm13.977,6.708a6.225,6.225,0,0,1-6.216,6.082,6.223,6.223,0,0,1-6.216-6.082c0-.044,0-.089,0-.135a6.224,6.224,0,0,1,6.217-6.217,6.226,6.226,0,0,1,6.217,6.217C-609.509,490.9-609.509,490.943-609.511,490.987Z" transform="translate(637.443 -468.96)"></path><path class="a" d="M-616.292,466.633a22.032,22.032,0,0,0-20.6-20.6c-.459-.028-.922-.042-1.388-.042a22.028,22.028,0,0,0-22.029,22.027,22.03,22.03,0,0,0,22.029,22.029,22.028,22.028,0,0,0,22.027-22.029Q-616.25,467.318-616.292,466.633Zm-9.7,1.381v5.447a6.934,6.934,0,0,1-1.915,4.787l-.029.031-.237.237-.021.019h0a7.038,7.038,0,0,1-4.831,1.912h-10.5a7.017,7.017,0,0,1-7.032-6.987V462.569a6.943,6.943,0,0,1,1.829-4.7c.14-.151.285-.3.436-.436a7.028,7.028,0,0,1,4.767-1.856h10.5a7.02,7.02,0,0,1,7.034,6.988Z" transform="translate(660.306 -445.987)"></path></svg> 