<?xml version="1.0" encoding="UTF-8"?> <svg xmlns="http://www.w3.org/2000/svg" width="43.953" height="43.955" viewBox="0 0 43.953 43.955"><defs><style>.a{fill:#1a1818;}</style></defs><g transform="translate(0)"><path class="a" d="M-257.8,273.913a21.977,21.977,0,0,0-21.976,21.977A21.977,21.977,0,0,0-257.8,317.868a21.955,21.955,0,0,0,6.024-.837,22.008,22.008,0,0,0,15.556-16.955,22.087,22.087,0,0,0,.4-4.185A21.978,21.978,0,0,0-257.8,273.913Zm5.117,21.985h-3.346v11.936h-4.962V295.9h-2.358v-4.217h2.358v-2.729a4.674,4.674,0,0,1,3.191-4.763,6.325,6.325,0,0,1,1.815-.244l3.653.016h.021v.02h0v4.07h-2.667a1.008,1.008,0,0,0-1.05,1.148v2.48h3.778Z" transform="translate(279.778 -273.913)"></path><path class="a" d="M-196.92,304.247h-.021l.021.02Z" transform="translate(224.384 -294.198)"></path><path class="a" d="M-196.922,304.268h0l-.021-.02h0Z" transform="translate(224.386 -294.198)"></path></g></svg> 